<?xml version="1.0" encoding="UTF-8"?>
<svg version="1.1" xmlns="http://www.w3.org/2000/svg" width="512" height="512">
<path d="M0 0 C1.35253372 0.00323273 1.35253372 0.00323273 2.73239136 0.00653076 C48.78159504 0.1828571 94.21021966 13.32371507 131.9375 40.3125 C133.00613281 41.07046875 134.07476562 41.8284375 135.17578125 42.609375 C153.37439213 55.92197751 170.34672691 71.39212051 183.70214844 89.62841797 C184.94269748 91.31958542 186.20797188 92.98995885 187.4765625 94.66015625 C194.2405554 103.6953375 199.75171848 113.30100479 204.9375 123.3125 C205.36063477 124.12605957 205.78376953 124.93961914 206.21972656 125.77783203 C221.32012536 155.1715196 229.52927143 187.29524917 230.9375 220.3125 C230.98729004 221.47966553 230.98729004 221.47966553 231.03808594 222.67041016 C232.02864683 250.91362476 227.6015791 279.76879765 217.9375 306.3125 C217.65567871 307.0972168 217.37385742 307.88193359 217.08349609 308.69042969 C209.71401395 328.91479537 199.86413821 348.080089 186.9375 365.3125 C186.49051758 365.91352539 186.04353516 366.51455078 185.58300781 367.13378906 C178.91307621 376.0414371 171.63672756 384.28599391 163.9375 392.3125 C163.15503906 393.13621094 162.37257813 393.95992188 161.56640625 394.80859375 C147.75208087 409.01691059 131.14413999 420.59305015 113.9375 430.3125 C113.29651367 430.68084961 112.65552734 431.04919922 111.99511719 431.42871094 C85.94142452 446.307318 57.52887824 454.29687751 27.9375 458.3125 C27.17711426 458.4170752 26.41672852 458.52165039 25.63330078 458.62939453 C17.23133081 459.62763071 8.76171797 459.55623739 0.3125 459.5625 C-0.50686035 459.56317474 -1.3262207 459.56384949 -2.17041016 459.56454468 C-37.0617244 459.51906901 -69.67099109 452.02296131 -101.1574707 436.95654297 C-102.59546021 436.27035889 -102.59546021 436.27035889 -104.0625 435.5703125 C-104.908125 435.1592627 -105.75375 434.74821289 -106.625 434.32470703 C-111.84644197 432.15642795 -115.16920922 432.3265619 -120.60595703 433.89550781 C-121.56078224 434.16603722 -121.56078224 434.16603722 -122.53489685 434.44203186 C-124.63321333 435.03936444 -126.72658969 435.65240384 -128.8203125 436.265625 C-130.28868518 436.68684951 -131.75734895 437.10706047 -133.22628784 437.52630615 C-137.09484276 438.63325839 -140.95943142 439.75347467 -144.82330322 440.87664795 C-148.72115922 442.00741361 -152.62236434 443.1264874 -156.5234375 444.24609375 C-161.60485276 445.70495414 -166.6849678 447.16810045 -171.76283073 448.63927841 C-174.86126168 449.53544552 -177.96183928 450.42408343 -181.0625 451.3125 C-182.12345886 451.61933716 -183.18441772 451.92617432 -184.27752686 452.24230957 C-185.71772186 452.64975403 -185.71772186 452.64975403 -187.18701172 453.06542969 C-188.00305878 453.29832703 -188.81910583 453.53122437 -189.65988159 453.7711792 C-199.39776085 455.96516747 -207.54198941 453.74748437 -215.875 448.5625 C-221.45205453 442.82610105 -225.11697542 436.09349656 -225.04046631 427.97425842 C-224.44462608 420.21154924 -222.50875714 413.1609995 -220.203125 405.74609375 C-219.81197393 404.46002378 -219.42183889 403.17364442 -219.03265381 401.88697815 C-218.01140309 398.51932814 -216.97788269 395.15557867 -215.94116211 391.79266357 C-214.90488811 388.42557796 -213.87827737 385.05555716 -212.8515625 381.68554688 C-212.65119102 381.02878149 -212.45081953 380.37201611 -212.24437618 379.69534874 C-211.25387965 376.44677536 -210.26780199 373.19695997 -209.29017639 369.94448853 C-207.66090213 364.53097444 -206.02040777 359.13239297 -204.20874023 353.77685547 C-201.100335 344.76786089 -201.100335 344.76786089 -202.62890625 335.578125 C-203.57951693 333.87844771 -204.58086559 332.20638165 -205.625 330.5625 C-206.69633479 328.61513451 -207.75163681 326.65888536 -208.79296875 324.6953125 C-209.6135376 323.15858887 -209.6135376 323.15858887 -210.45068359 321.59082031 C-213.32645119 315.74171287 -215.411041 309.61960934 -217.4375 303.4375 C-217.64601593 302.80302948 -217.85453186 302.16855896 -218.06936646 301.51486206 C-222.14182116 288.98014312 -225.04827699 276.33193685 -227.0625 263.3125 C-227.19092285 262.50409668 -227.3193457 261.69569336 -227.45166016 260.86279297 C-236.34903406 202.14012521 -219.51881324 140.9937688 -184.78515625 93.38842773 C-178.99522303 85.55894266 -172.85123377 78.30231937 -166.0625 71.3125 C-165.46421387 70.68843262 -164.86592773 70.06436523 -164.24951172 69.42138672 C-132.37910685 36.26814795 -92.22993494 14.55781221 -47.375 4.5625 C-46.04069946 4.26412231 -46.04069946 4.26412231 -44.67944336 3.9597168 C-29.77108281 0.80709152 -15.18568554 -0.06546233 0 0 Z M-124.0625 76.3125 C-124.65579102 76.80427734 -125.24908203 77.29605469 -125.86035156 77.80273438 C-136.38181608 86.57888008 -145.51512478 95.56161426 -154.0625 106.3125 C-154.85785156 107.27929688 -155.65320313 108.24609375 -156.47265625 109.2421875 C-176.86882198 134.64850488 -189.76306606 166.30651819 -195.0625 198.3125 C-195.23604004 199.31627686 -195.23604004 199.31627686 -195.41308594 200.34033203 C-202.86135667 245.06310896 -191.35056584 288.06182498 -171.25830078 327.71313477 C-165.63620374 339.93413665 -169.33563447 354.70711378 -173.21875 366.8671875 C-173.64691529 368.26993563 -174.0728537 369.67336517 -174.4967041 371.0774231 C-175.60079051 374.71578262 -176.73184368 378.34513243 -177.87017822 381.97290039 C-179.25766328 386.41118902 -180.61492914 390.85879572 -181.97380829 395.30591011 C-183.02852733 398.75718725 -184.08846915 402.206508 -185.16564941 405.65084839 C-185.5460437 406.87707916 -185.92643799 408.10330994 -186.31835938 409.36669922 C-186.65589233 410.44571503 -186.99342529 411.52473083 -187.34118652 412.63644409 C-188.1926275 415.33334258 -188.1926275 415.33334258 -188.0625 418.3125 C-179.76731815 416.31913549 -171.59575225 414.04662004 -163.4375 411.5546875 C-162.28757568 411.2061673 -161.13765137 410.85764709 -159.95288086 410.49856567 C-156.32191638 409.39761393 -152.6921536 408.29276501 -149.0625 407.1875 C-145.40407735 406.07578208 -141.74540516 404.96489516 -138.08642578 403.85501099 C-135.82010501 403.16732618 -133.55414006 402.47846741 -131.28857422 401.78829956 C-130.26650879 401.47772614 -129.24444336 401.16715271 -128.19140625 400.84716797 C-127.29494385 400.57419891 -126.39848145 400.30122986 -125.47485352 400.01998901 C-121.34665562 398.80928145 -117.7608431 398.13094343 -113.4375 398.0625 C-112.47585937 398.03671875 -111.51421875 398.0109375 -110.5234375 397.984375 C-101.71989931 398.81902196 -94.22016536 402.5429434 -86.4375 406.5 C-38.97920252 429.75321697 14.93254212 432.44787698 64.89428711 415.7668457 C83.87686546 409.13270187 102.14127006 399.80254228 117.9375 387.3125 C118.80761719 386.64992188 119.67773438 385.98734375 120.57421875 385.3046875 C127.37925395 380.02731327 133.66895753 374.20600147 139.9375 368.3125 C140.57429688 367.72984375 141.21109375 367.1471875 141.8671875 366.546875 C147.40148387 361.30385739 151.95795702 355.18428355 156.55419922 349.12695312 C157.82307231 347.46259294 159.11550654 345.81626421 160.41015625 344.171875 C178.87611413 319.7908054 189.74185791 290.23640315 194.9375 260.3125 C195.13230957 259.22509521 195.13230957 259.22509521 195.33105469 258.11572266 C203.5279485 210.30050876 190.37857435 157.96601251 162.9375 118.3125 C157.75019986 111.00801587 152.09210914 104.16452389 146.015625 97.578125 C144.11931669 95.5107212 142.30720394 93.39499907 140.5 91.25 C109.47496458 55.92376649 59.73546866 36.70531501 13.9375 32.5625 C11.93867114 32.45466844 9.93835669 32.37180374 7.9375 32.3125 C6.7515625 32.27253906 5.565625 32.23257813 4.34375 32.19140625 C-42.09720044 31.40191009 -88.21941626 46.59107752 -124.0625 76.3125 Z " fill="#000000" transform="translate(256.0625,16.6875)"/>
<path d="M0 0 C6.47876645 4.6089754 11.44228933 9.97851797 13 18 C13.71702306 27.65223349 12.94416829 34.67780326 6.75 42.25 C1.85651406 47.51592885 -3.48278608 50.66443554 -10.734375 51.203125 C-20.74768125 51.35877225 -26.8344695 49.78250673 -34.23828125 42.90234375 C-40.31432499 36.3412943 -41.32905721 29.68518327 -41.203125 21.02734375 C-40.69363376 13.43396473 -37.49076889 8.47011418 -32.29296875 2.98828125 C-23.69185449 -4.46992515 -9.89236377 -5.8323728 0 0 Z " fill="#000000" transform="translate(270,232)"/>
<path d="M0 0 C6.87763483 4.24097564 11.60776616 9.78280917 13.546875 17.734375 C14.92624046 26.66469981 13.3414983 34.10365094 8.11328125 41.5 C3.29157197 47.48844387 -2.51405959 50.63773462 -10.15234375 51.55859375 C-19.22329495 51.74850283 -25.64944477 50.29993699 -32.3984375 44.02734375 C-39.4757548 36.41636877 -40.64361317 30.21457753 -40.3828125 20.078125 C-39.78362144 12.52376684 -36.53433047 7.80749222 -31.0390625 2.73046875 C-22.07153113 -4.31162845 -10.14157291 -5.33962157 0 0 Z " fill="#000000" transform="translate(184.07421875,231.8125)"/>
<path d="M0 0 C6.59946949 3.77881532 12.48735618 9.66104529 14.6875 17.0625 C15.57647832 26.87227235 15.50371276 35.03599544 9.1796875 42.94921875 C4.2382991 48.43071239 -1.09756869 51.555244 -8.4609375 52.44140625 C-17.413071 52.76485163 -23.2370079 50.80561968 -30.5625 45.875 C-36.41274286 39.89179707 -39.01027543 33.59586853 -39.5625 25.3125 C-39.40537601 16.95350396 -35.95187941 10.11351294 -30.3125 4.0625 C-21.71209928 -2.74615057 -10.14347802 -4.54653574 0 0 Z " fill="#000000" transform="translate(353.3125,230.9375)"/>
</svg>
