<?xml version="1.0" encoding="UTF-8"?>
<svg version="1.1" xmlns="http://www.w3.org/2000/svg" width="512" height="512">
<path d="M0 0 C2.16375015 2.02333658 4.30473323 4.06906662 6.4375 6.125 C6.99356934 6.65915527 7.54963867 7.19331055 8.12255859 7.74365234 C15.43468132 14.80399466 22.24519799 22.04241632 28.4375 30.125 C28.84645508 30.65222656 29.25541016 31.17945312 29.67675781 31.72265625 C71.13701341 85.42474539 90.42423467 153.81750462 81.83984375 221.27490234 C73.84183028 277.93073321 49.09882823 328.07163919 9.4375 369.125 C8.93686035 369.64755371 8.4362207 370.17010742 7.92041016 370.70849609 C1.49523753 377.39654656 -5.21975265 383.46196609 -12.5625 389.125 C-13.1085791 389.54749023 -13.6546582 389.96998047 -14.21728516 390.40527344 C-67.92772508 431.67925169 -135.49051826 450.6288934 -202.83154297 442.48876953 C-226.66276805 439.31439752 -251.67799654 433.83646307 -273.23974609 422.87915039 C-280.05757336 420.66554219 -287.5769364 422.87497233 -294.39770508 424.16040039 C-295.57259995 424.37658524 -296.74749481 424.59277008 -297.95799255 424.81550598 C-301.16552049 425.40644556 -304.37202022 426.00265989 -307.57829118 426.6003716 C-310.94640589 427.22615007 -314.31620232 427.84271417 -317.68595886 428.45957947 C-329.14937289 430.55972309 -340.61027213 432.67332651 -352.06860352 434.80102539 C-358.40532798 435.97759217 -364.7438002 437.1442386 -371.08428687 438.30036348 C-374.43274795 438.91141668 -377.78007442 439.52762763 -381.12525368 440.15641975 C-384.86102748 440.85645976 -388.59955051 441.5395193 -392.33911133 442.21899414 C-393.43295135 442.42830566 -394.52679138 442.63761719 -395.65377808 442.85327148 C-403.3749971 444.23041211 -410.78792519 445.08218694 -417.9375 441.375 C-422.03777837 437.86047569 -425.09384272 434.38768858 -426.5625 429.125 C-426.8890473 423.28704702 -426.12196616 418.78434262 -424.01953125 413.30859375 C-423.74332947 412.55862625 -423.46712769 411.80865875 -423.18255615 411.03596497 C-422.25922403 408.5399551 -421.31716635 406.05145509 -420.375 403.5625 C-419.71703619 401.79365901 -419.06007964 400.02444307 -418.40405273 398.25488281 C-414.54866789 387.89508129 -410.59078235 377.57455584 -406.61992836 367.25857735 C-405.89329342 365.37021588 -405.16749743 363.481534 -404.44194031 361.59275818 C-403.96027101 360.33925031 -403.47856637 359.08575602 -402.99682617 357.83227539 C-402.75925189 357.21406512 -402.52167761 356.59585485 -402.27690411 355.95891094 C-400.61937672 351.64977272 -398.94658701 347.34672259 -397.27075195 343.04467773 C-396.38988117 340.76425885 -395.50925426 338.48374575 -394.62890625 336.203125 C-394.21711121 335.15590775 -393.80531616 334.10869049 -393.38104248 333.02973938 C-393.00852356 332.05989609 -392.63600464 331.0900528 -392.25219727 330.09082031 C-391.92437759 329.24851868 -391.59655792 328.40621704 -391.25880432 327.53839111 C-390.00568865 323.19509159 -390.22756652 320.79796821 -392.25 316.734375 C-393.01327518 315.44341797 -393.78464209 314.15722312 -394.5625 312.875 C-395.40235275 311.42283024 -396.23819116 309.96833254 -397.0703125 308.51171875 C-397.4921582 307.77356934 -397.91400391 307.03541992 -398.34863281 306.27490234 C-411.3769976 283.20012754 -419.30956739 256.16714113 -423.5625 230.125 C-423.74498291 229.01705078 -423.74498291 229.01705078 -423.93115234 227.88671875 C-424.60738208 223.64355196 -425.13154352 219.39948694 -425.5625 215.125 C-425.67335938 214.07699219 -425.78421875 213.02898437 -425.8984375 211.94921875 C-431.75082888 145.91209978 -411.55688029 78.73786169 -369.25073242 27.59912109 C-357.77651534 13.98849487 -345.59706995 1.1219507 -331.5625 -9.875 C-330.12003906 -11.04289062 -330.12003906 -11.04289062 -328.6484375 -12.234375 C-250.20086176 -74.59523268 -140.07897123 -81.85506105 0 0 Z M-317.375 165.9375 C-324.23601579 174.24712933 -326.39603621 183.53600291 -325.5625 194.125 C-323.59677869 205.01976047 -317.60043398 213.79844621 -308.5625 220.125 C-299.34087493 225.19843587 -289.7701377 226.71950687 -279.5 224 C-270.04597765 220.81408338 -262.11294449 214.57839151 -257.27734375 205.7890625 C-252.84679186 196.22923368 -252.13701623 186.63091231 -255.52734375 176.5703125 C-259.45125547 167.30099652 -266.09060485 159.99496885 -275.25 155.75 C-290.65629236 149.61892447 -306.16869947 153.96821731 -317.375 165.9375 Z M-199.375 165.9375 C-206.23601579 174.24712933 -208.39603621 183.53600291 -207.5625 194.125 C-205.59677869 205.01976047 -199.60043398 213.79844621 -190.5625 220.125 C-181.34087493 225.19843587 -171.7701377 226.71950687 -161.5 224 C-152.04597765 220.81408338 -144.11294449 214.57839151 -139.27734375 205.7890625 C-134.84679186 196.22923368 -134.13701623 186.63091231 -137.52734375 176.5703125 C-141.45125547 167.30099652 -148.09060485 159.99496885 -157.25 155.75 C-172.65629236 149.61892447 -188.16869947 153.96821731 -199.375 165.9375 Z M-81.375 165.9375 C-88.23601579 174.24712933 -90.39603621 183.53600291 -89.5625 194.125 C-87.59677869 205.01976047 -81.60043398 213.79844621 -72.5625 220.125 C-63.34087493 225.19843587 -53.7701377 226.71950687 -43.5 224 C-34.04597765 220.81408338 -26.11294449 214.57839151 -21.27734375 205.7890625 C-16.84679186 196.22923368 -16.13701623 186.63091231 -19.52734375 176.5703125 C-23.45125547 167.30099652 -30.09060485 159.99496885 -39.25 155.75 C-54.65629236 149.61892447 -70.16869947 153.96821731 -81.375 165.9375 Z " fill="#000000" transform="translate(427.5625,66.875)"/>
<path d="M0 0 C0.66 0 1.32 0 2 0 C2 0.66 2 1.32 2 2 C1.34 2 0.68 2 0 2 C0 1.34 0 0.68 0 0 Z " fill="#000000" transform="translate(373,255)"/>
<path d="M0 0 C0.66 0 1.32 0 2 0 C2 0.66 2 1.32 2 2 C1.34 2 0.68 2 0 2 C0 1.34 0 0.68 0 0 Z " fill="#000000" transform="translate(255,255)"/>
<path d="M0 0 C0.66 0 1.32 0 2 0 C2 0.66 2 1.32 2 2 C1.34 2 0.68 2 0 2 C0 1.34 0 0.68 0 0 Z " fill="#000000" transform="translate(137,255)"/>
</svg>
